<?xml version="1.0" encoding="utf-8"?>
<svg version="1.1" xmlns:xlink="http://www.w3.org/1999/xlink" width="63px" height="56px" xmlns="http://www.w3.org/2000/svg">
  <g transform="matrix(1 0 0 1 -19 0 )">
    <path d="M 50.5 0  C 68.14 0  82 12.32  82 28  C 82 43.68  68.14 56  50.5 56  C 32.86 56  19 43.68  19 28  C 19 12.32  32.86 0  50.5 0  Z " fill-rule="nonzero" fill="#ffffff" stroke="none" />
    <path d="M 50.5 0.5  C 67.86 0.5  81.5 12.6  81.5 28  C 81.5 43.4  67.86 55.5  50.5 55.5  C 33.14 55.5  19.5 43.4  19.5 28  C 19.5 12.6  33.14 0.5  50.5 0.5  Z " stroke-width="1" stroke="#797979" fill="none" />
  </g>
</svg>