<?xml version="1.0" encoding="utf-8"?>
<svg version="1.1" xmlns:xlink="http://www.w3.org/1999/xlink" width="39px" height="27px" xmlns="http://www.w3.org/2000/svg">
  <g transform="matrix(1 0 0 1 -30 -9 )">
    <path d="M 49.5 9  C 60.42 9  69 14.94  69 22.5  C 69 30.06  60.42 36  49.5 36  C 38.58 36  30 30.06  30 22.5  C 30 14.94  38.58 9  49.5 9  Z " fill-rule="nonzero" fill="#ffffff" stroke="none" />
    <path d="M 49.5 9.5  C 60.14 9.5  68.5 15.22  68.5 22.5  C 68.5 29.78  60.14 35.5  49.5 35.5  C 38.86 35.5  30.5 29.78  30.5 22.5  C 30.5 15.22  38.86 9.5  49.5 9.5  Z " stroke-width="1" stroke="#797979" fill="none" />
  </g>
</svg>