<?xml version="1.0" encoding="utf-8"?>
<svg version="1.1" xmlns:xlink="http://www.w3.org/1999/xlink" width="32px" height="24px" xmlns="http://www.w3.org/2000/svg">
  <g transform="matrix(1 0 0 1 -49 -6 )">
    <path d="M 65 6  C 73.96 6  81 11.28  81 18  C 81 24.72  73.96 30  65 30  C 56.04 30  49 24.72  49 18  C 49 11.28  56.04 6  65 6  Z " fill-rule="nonzero" fill="#ffffff" stroke="none" />
    <path d="M 65 6.5  C 73.68 6.5  80.5 11.56  80.5 18  C 80.5 24.44  73.68 29.5  65 29.5  C 56.32 29.5  49.5 24.44  49.5 18  C 49.5 11.56  56.32 6.5  65 6.5  Z " stroke-width="1" stroke="#797979" fill="none" />
  </g>
</svg>