<?xml version="1.0" encoding="utf-8"?>
<svg version="1.1" xmlns:xlink="http://www.w3.org/1999/xlink" width="170px" height="170px" xmlns="http://www.w3.org/2000/svg">
  <g transform="matrix(1 0 0 1 -109 -187 )">
    <path d="M 194 187  C 241.6 187  279 224.4  279 272  C 279 319.6  241.6 357  194 357  C 146.4 357  109 319.6  109 272  C 109 224.4  146.4 187  194 187  Z " fill-rule="nonzero" fill="#ffffff" stroke="none" />
    <path d="M 194 187.5  C 241.32 187.5  278.5 224.68  278.5 272  C 278.5 319.32  241.32 356.5  194 356.5  C 146.68 356.5  109.5 319.32  109.5 272  C 109.5 224.68  146.68 187.5  194 187.5  Z " stroke-width="1" stroke="#797979" fill="none" />
  </g>
</svg>