<?xml version="1.0" encoding="utf-8"?>
<svg version="1.1" xmlns:xlink="http://www.w3.org/1999/xlink" width="25px" height="25px" xmlns="http://www.w3.org/2000/svg">
  <g transform="matrix(1 0 0 1 -3296 -2647 )">
    <path d="M 3308.5 2649  C 3314.38 2649  3319 2653.62  3319 2659.5  C 3319 2665.38  3314.38 2670  3308.5 2670  C 3302.62 2670  3298 2665.38  3298 2659.5  C 3298 2653.62  3302.62 2649  3308.5 2649  Z " fill-rule="nonzero" fill="#f9ff2f" stroke="none" />
    <path d="M 3308.5 2648.5  C 3314.66 2648.5  3319.5 2653.34  3319.5 2659.5  C 3319.5 2665.66  3314.66 2670.5  3308.5 2670.5  C 3302.34 2670.5  3297.5 2665.66  3297.5 2659.5  C 3297.5 2653.34  3302.34 2648.5  3308.5 2648.5  Z " stroke-width="3" stroke="#797979" fill="none" />
  </g>
</svg>