<?xml version="1.0" encoding="utf-8"?>
<svg version="1.1" xmlns:xlink="http://www.w3.org/1999/xlink" width="170px" height="276px" xmlns="http://www.w3.org/2000/svg">
  <defs>
    <mask fill="white" id="clip135">
      <path d="M 0 191  C 0 143.4  37.4 0.782608695652016  85 0.782608695652016  C 101.257999420593 0.782608695652016  116.326071416995 17.4202895857917  129.120415464109 41.2269490802934  C 153.78521758176 87.1211772917517  170 159.657999420592  170 191  C 170 238.6  132.6 276  85 276  C 37.4 276  0 238.6  0 191  Z " fill-rule="evenodd" />
    </mask>
  </defs>
  <g transform="matrix(1 0 0 1 -337 -134 )">
    <path d="M 0 191  C 0 143.4  37.4 0.782608695652016  85 0.782608695652016  C 101.257999420593 0.782608695652016  116.326071416995 17.4202895857917  129.120415464109 41.2269490802934  C 153.78521758176 87.1211772917517  170 159.657999420592  170 191  C 170 238.6  132.6 276  85 276  C 37.4 276  0 238.6  0 191  Z " fill-rule="nonzero" fill="#ffffff" stroke="none" transform="matrix(1 0 0 1 337 134 )" />
    <path d="M 0 191  C 0 143.4  37.4 0.782608695652016  85 0.782608695652016  C 101.257999420593 0.782608695652016  116.326071416995 17.4202895857917  129.120415464109 41.2269490802934  C 153.78521758176 87.1211772917517  170 159.657999420592  170 191  C 170 238.6  132.6 276  85 276  C 37.4 276  0 238.6  0 191  Z " stroke-width="2" stroke="#797979" fill="none" transform="matrix(1 0 0 1 337 134 )" mask="url(#clip135)" />
  </g>
</svg>