<?xml version="1.0" encoding="utf-8"?>
<svg version="1.1" xmlns:xlink="http://www.w3.org/1999/xlink" width="38px" height="40px" xmlns="http://www.w3.org/2000/svg">
  <g transform="matrix(1 0 0 1 -3 -387 )">
    <path d="M 22 387  C 32.64 387  41 395.8  41 407  C 41 418.2  32.64 427  22 427  C 11.36 427  3 418.2  3 407  C 3 395.8  11.36 387  22 387  Z " fill-rule="nonzero" fill="#ffffff" stroke="none" />
    <path d="M 22 387.5  C 32.36 387.5  40.5 396.08  40.5 407  C 40.5 417.92  32.36 426.5  22 426.5  C 11.64 426.5  3.5 417.92  3.5 407  C 3.5 396.08  11.64 387.5  22 387.5  Z " stroke-width="1" stroke="#797979" fill="none" />
  </g>
</svg>