<?xml version="1.0" encoding="utf-8"?>
<svg version="1.1" xmlns:xlink="http://www.w3.org/1999/xlink" width="92px" height="61px" xmlns="http://www.w3.org/2000/svg">
  <defs>
    <mask fill="white" id="clip134">
      <path d="M 0.62457074175823 39.5746981438097  C 0.62457074175823 24.1476013696161  16.975832760989 0  37.7865298763736 0  C 53.1069629409371 0  66.010551698552 12.7891933871924  71.7526719492332 25.692399133001  C 72.6887793194024 27.7959402415364  91.1493216653519 15.5768955643467  91.6842105263158 17.6315789473684  C 92.325118706094 20.0935172735098  74.948489010989 36.8065759882251  74.948489010989 39.025049558479  C 74.948489010989 54.4521463326726  58.5972269917582 60.7251757073346  37.7865298763736 60.7251757073346  C 16.975832760989 60.7251757073346  0.62457074175823 55.0017949180032  0.62457074175823 39.5746981438097  Z " fill-rule="evenodd" />
    </mask>
  </defs>
  <g transform="matrix(1 0 0 1 -21 -383 )">
    <path d="M 0.62457074175823 39.5746981438097  C 0.62457074175823 24.1476013696161  16.975832760989 0  37.7865298763736 0  C 53.1069629409371 0  66.010551698552 12.7891933871924  71.7526719492332 25.692399133001  C 72.6887793194024 27.7959402415364  91.1493216653519 15.5768955643467  91.6842105263158 17.6315789473684  C 92.325118706094 20.0935172735098  74.948489010989 36.8065759882251  74.948489010989 39.025049558479  C 74.948489010989 54.4521463326726  58.5972269917582 60.7251757073346  37.7865298763736 60.7251757073346  C 16.975832760989 60.7251757073346  0.62457074175823 55.0017949180032  0.62457074175823 39.5746981438097  Z " fill-rule="nonzero" fill="#ffffff" stroke="none" fill-opacity="0" transform="matrix(1 0 0 1 21 383 )" />
    <path d="M 0.62457074175823 39.5746981438097  C 0.62457074175823 24.1476013696161  16.975832760989 0  37.7865298763736 0  C 53.1069629409371 0  66.010551698552 12.7891933871924  71.7526719492332 25.692399133001  C 72.6887793194024 27.7959402415364  91.1493216653519 15.5768955643467  91.6842105263158 17.6315789473684  C 92.325118706094 20.0935172735098  74.948489010989 36.8065759882251  74.948489010989 39.025049558479  C 74.948489010989 54.4521463326726  58.5972269917582 60.7251757073346  37.7865298763736 60.7251757073346  C 16.975832760989 60.7251757073346  0.62457074175823 55.0017949180032  0.62457074175823 39.5746981438097  Z " stroke-width="8" stroke="#ffffff" fill="none" transform="matrix(1 0 0 1 21 383 )" mask="url(#clip134)" />
  </g>
</svg>