<?xml version="1.0" encoding="utf-8"?>
<svg version="1.1" xmlns:xlink="http://www.w3.org/1999/xlink" width="549px" height="183px" xmlns="http://www.w3.org/2000/svg">
  <defs>
    <mask fill="white" id="clip90">
      <path d="M 548.235294117647 183  L 0 183  C 0 78.28  69.4117647058823 8.64705882352939  158.823529411765 1  C 248.235294117647 -6.64705882352939  335.294117647059 45.1176470588235  376.470588235294 75.7058823529412  C 437.836453320354 121.291953558985  463.529411764706 125.117647058824  548.235294117647 183  Z " fill-rule="evenodd" />
    </mask>
  </defs>
  <g transform="matrix(1 0 0 1 0 -261 )">
    <path d="M 548.235294117647 183  L 0 183  C 0 78.28  69.4117647058823 8.64705882352939  158.823529411765 1  C 248.235294117647 -6.64705882352939  335.294117647059 45.1176470588235  376.470588235294 75.7058823529412  C 437.836453320354 121.291953558985  463.529411764706 125.117647058824  548.235294117647 183  Z " fill-rule="nonzero" fill="#94c88b" stroke="none" transform="matrix(1 0 0 1 0 261 )" />
    <path d="M 548.235294117647 183  L 0 183  C 0 78.28  69.4117647058823 8.64705882352939  158.823529411765 1  C 248.235294117647 -6.64705882352939  335.294117647059 45.1176470588235  376.470588235294 75.7058823529412  C 437.836453320354 121.291953558985  463.529411764706 125.117647058824  548.235294117647 183  Z " stroke-width="10" stroke="#65a149" fill="none" transform="matrix(1 0 0 1 0 261 )" mask="url(#clip90)" />
  </g>
</svg>