<?xml version="1.0" encoding="utf-8"?>
<svg version="1.1" xmlns:xlink="http://www.w3.org/1999/xlink" width="17px" height="16px" xmlns="http://www.w3.org/2000/svg">
  <g transform="matrix(1 0 0 1 -130 -306 )">
    <path d="M 138.5 306  C 143.26 306  147 309.52  147 314  C 147 318.48  143.26 322  138.5 322  C 133.74 322  130 318.48  130 314  C 130 309.52  133.74 306  138.5 306  Z " fill-rule="nonzero" fill="#ffffff" stroke="none" fill-opacity="0.298039215686275" />
    <path d="M 138.5 306.5  C 142.98 306.5  146.5 309.8  146.5 314  C 146.5 318.2  142.98 321.5  138.5 321.5  C 134.02 321.5  130.5 318.2  130.5 314  C 130.5 309.8  134.02 306.5  138.5 306.5  Z " stroke-width="1" stroke="#797979" fill="none" />
  </g>
</svg>