<?xml version="1.0" encoding="utf-8"?>
<svg version="1.1" xmlns:xlink="http://www.w3.org/1999/xlink" width="173px" height="102px" xmlns="http://www.w3.org/2000/svg">
  <defs>
    <mask fill="white" id="clip114">
      <path d="M 1.11392513736262 66.1740854207965  C 1.11392513736262 40.3779563885384  30.2764852335165 0  67.3924708104395 0  C 94.7165421523931 0  117.730159214943 21.3852086146496  127.971260280591 42.9610608453459  C 129.640812600584 46.4784574530608  171.385632172558 50.8306679038773  172.339609213246 54.2663679869628  C 173.482672255531 58.3830517454287  133.671016483516 61.5454221442453  133.671016483516 65.2550009010632  C 133.671016483516 91.0511299333213  104.508456387363 101.540457740133  67.3924708104395 101.540457740133  C 30.2764852335165 101.540457740133  1.11392513736262 91.9702144530546  1.11392513736262 66.1740854207965  Z " fill-rule="evenodd" />
    </mask>
  </defs>
  <g transform="matrix(1 0 0 1 -79 -322 )">
    <path d="M 1.11392513736262 66.1740854207965  C 1.11392513736262 40.3779563885384  30.2764852335165 0  67.3924708104395 0  C 94.7165421523931 0  117.730159214943 21.3852086146496  127.971260280591 42.9610608453459  C 129.640812600584 46.4784574530608  171.385632172558 50.8306679038773  172.339609213246 54.2663679869628  C 173.482672255531 58.3830517454287  133.671016483516 61.5454221442453  133.671016483516 65.2550009010632  C 133.671016483516 91.0511299333213  104.508456387363 101.540457740133  67.3924708104395 101.540457740133  C 30.2764852335165 101.540457740133  1.11392513736262 91.9702144530546  1.11392513736262 66.1740854207965  Z " fill-rule="nonzero" fill="#ffffff" stroke="none" fill-opacity="0" transform="matrix(1 0 0 1 79 322 )" />
    <path d="M 1.11392513736262 66.1740854207965  C 1.11392513736262 40.3779563885384  30.2764852335165 0  67.3924708104395 0  C 94.7165421523931 0  117.730159214943 21.3852086146496  127.971260280591 42.9610608453459  C 129.640812600584 46.4784574530608  171.385632172558 50.8306679038773  172.339609213246 54.2663679869628  C 173.482672255531 58.3830517454287  133.671016483516 61.5454221442453  133.671016483516 65.2550009010632  C 133.671016483516 91.0511299333213  104.508456387363 101.540457740133  67.3924708104395 101.540457740133  C 30.2764852335165 101.540457740133  1.11392513736262 91.9702144530546  1.11392513736262 66.1740854207965  Z " stroke-width="8" stroke="#ffffff" fill="none" transform="matrix(1 0 0 1 79 322 )" mask="url(#clip114)" />
  </g>
</svg>