<?xml version="1.0" encoding="utf-8"?>
<svg version="1.1" xmlns:xlink="http://www.w3.org/1999/xlink" width="35px" height="12px" xmlns="http://www.w3.org/2000/svg">
  <g transform="matrix(1 0 0 1 -60 -355 )">
    <path d="M 77.5 355  C 87.3 355  95 357.64  95 361  C 95 364.36  87.3 367  77.5 367  C 67.7 367  60 364.36  60 361  C 60 357.64  67.7 355  77.5 355  Z " fill-rule="nonzero" fill="#ffffff" stroke="none" fill-opacity="0.686274509803922" />
    <path d="M 77.5 355.5  C 87.02 355.5  94.5 357.92  94.5 361  C 94.5 364.08  87.02 366.5  77.5 366.5  C 67.98 366.5  60.5 364.08  60.5 361  C 60.5 357.92  67.98 355.5  77.5 355.5  Z " stroke-width="1" stroke="#797979" fill="none" />
  </g>
</svg>