<?xml version="1.0" encoding="utf-8"?>
<svg version="1.1" xmlns:xlink="http://www.w3.org/1999/xlink" width="97px" height="61px" xmlns="http://www.w3.org/2000/svg">
  <defs>
    <mask fill="white" id="clip117">
      <path d="M 0.624570741758231 39.5746981438097  C 0.624570741758231 24.1476013696161  16.975832760989 0  37.7865298763736 0  C 53.1069629409371 0  66.010551698552 12.7891933871924  71.7526719492332 25.692399133001  C 72.6887793194024 27.7959402415364  96.0948342239199 30.3987327660442  96.6297230848838 32.453416149066  C 97.270631264662 34.9153544752074  74.948489010989 36.8065759882251  74.948489010989 39.025049558479  C 74.948489010989 54.4521463326726  58.5972269917582 60.7251757073346  37.7865298763736 60.7251757073346  C 16.975832760989 60.7251757073346  0.624570741758231 55.0017949180032  0.624570741758231 39.5746981438097  Z " fill-rule="evenodd" />
    </mask>
  </defs>
  <g transform="matrix(1 0 0 1 -21 -383 )">
    <path d="M 0.624570741758231 39.5746981438097  C 0.624570741758231 24.1476013696161  16.975832760989 0  37.7865298763736 0  C 53.1069629409371 0  66.010551698552 12.7891933871924  71.7526719492332 25.692399133001  C 72.6887793194024 27.7959402415364  96.0948342239199 30.3987327660442  96.6297230848838 32.453416149066  C 97.270631264662 34.9153544752074  74.948489010989 36.8065759882251  74.948489010989 39.025049558479  C 74.948489010989 54.4521463326726  58.5972269917582 60.7251757073346  37.7865298763736 60.7251757073346  C 16.975832760989 60.7251757073346  0.624570741758231 55.0017949180032  0.624570741758231 39.5746981438097  Z " fill-rule="nonzero" fill="#ffffff" stroke="none" fill-opacity="0" transform="matrix(1 0 0 1 21 383 )" />
    <path d="M 0.624570741758231 39.5746981438097  C 0.624570741758231 24.1476013696161  16.975832760989 0  37.7865298763736 0  C 53.1069629409371 0  66.010551698552 12.7891933871924  71.7526719492332 25.692399133001  C 72.6887793194024 27.7959402415364  96.0948342239199 30.3987327660442  96.6297230848838 32.453416149066  C 97.270631264662 34.9153544752074  74.948489010989 36.8065759882251  74.948489010989 39.025049558479  C 74.948489010989 54.4521463326726  58.5972269917582 60.7251757073346  37.7865298763736 60.7251757073346  C 16.975832760989 60.7251757073346  0.624570741758231 55.0017949180032  0.624570741758231 39.5746981438097  Z " stroke-width="8" stroke="#ffffff" fill="none" transform="matrix(1 0 0 1 21 383 )" mask="url(#clip117)" />
  </g>
</svg>