<?xml version="1.0" encoding="utf-8"?>
<svg version="1.1" xmlns:xlink="http://www.w3.org/1999/xlink" width="177px" height="130px" xmlns="http://www.w3.org/2000/svg">
  <defs>
    <radialGradient cx="82.1909518213865" cy="12.7236945683547" r="132.108695652174" gradientTransform="matrix(0 0.98403817673194 -1 0 94.9146463897413 -68.1553398058253 )" gradientUnits="userSpaceOnUse" id="RadialGradient73">
      <stop id="Stop74" stop-color="#d8f8ff" offset="0" />
      <stop id="Stop75" stop-color="#85e2f7" offset="0.2" />
      <stop id="Stop76" stop-color="#007ec3" offset="1" />
    </radialGradient>
    <linearGradient gradientUnits="userSpaceOnUse" x1="88.5" y1="0" x2="88.5" y2="130" id="LinearGradient77">
      <stop id="Stop78" stop-color="#8deaff" offset="0" />
      <stop id="Stop79" stop-color="#1173ca" offset="1" />
    </linearGradient>
    <mask fill="white" id="clip80">
      <path d="M 0.398536448072074 81.6630355846042  C 0.398536448072074 43.4655047204066  32.9788910779622 0.472040668119126  88.9234449760766 0.472040668119126  C 144.867998874191 0.472040668119126  176.750914719955 43.4655047204066  176.750914719955 81.6630355846042  C 176.750914719955 119.860566448802  129.235406698565 130  88.9234449760766 130  C 48.6114832535885 130  0.398536448072074 119.860566448802  0.398536448072074 81.6630355846042  Z " fill-rule="evenodd" />
    </mask>
  </defs>
  <g transform="matrix(1 0 0 1 -610 -238 )">
    <path d="M 0.398536448072074 81.6630355846042  C 0.398536448072074 43.4655047204066  32.9788910779622 0.472040668119126  88.9234449760766 0.472040668119126  C 144.867998874191 0.472040668119126  176.750914719955 43.4655047204066  176.750914719955 81.6630355846042  C 176.750914719955 119.860566448802  129.235406698565 130  88.9234449760766 130  C 48.6114832535885 130  0.398536448072074 119.860566448802  0.398536448072074 81.6630355846042  Z " fill-rule="nonzero" fill="url(#RadialGradient73)" stroke="none" transform="matrix(1 0 0 1 610 238 )" />
    <path d="M 0.398536448072074 81.6630355846042  C 0.398536448072074 43.4655047204066  32.9788910779622 0.472040668119126  88.9234449760766 0.472040668119126  C 144.867998874191 0.472040668119126  176.750914719955 43.4655047204066  176.750914719955 81.6630355846042  C 176.750914719955 119.860566448802  129.235406698565 130  88.9234449760766 130  C 48.6114832535885 130  0.398536448072074 119.860566448802  0.398536448072074 81.6630355846042  Z " stroke-width="6" stroke="url(#LinearGradient77)" fill="none" transform="matrix(1 0 0 1 610 238 )" mask="url(#clip80)" />
  </g>
</svg>