<?xml version="1.0" encoding="utf-8"?>
<svg version="1.1" xmlns:xlink="http://www.w3.org/1999/xlink" width="33px" height="26px" xmlns="http://www.w3.org/2000/svg">
  <defs>
    <mask fill="white" id="clip91">
      <path d="M 0.0669371196754568 17.8250910983863  C 0.0669371196754568 10.5450910983863  7.85172413793103 0  16.8793103448276 0  C 25.9068965517241 0  33 10.5450910983863  33 17.8250910983863  C 33 25.1050910983863  25.9068965517241 26  16.8793103448276 26  C 7.85172413793103 26  0.0669371196754568 25.1050910983863  0.0669371196754568 17.8250910983863  Z " fill-rule="evenodd" />
    </mask>
  </defs>
  <g transform="matrix(1 0 0 1 -342 -209 )">
    <path d="M 0.0669371196754568 17.8250910983863  C 0.0669371196754568 10.5450910983863  7.85172413793103 0  16.8793103448276 0  C 25.9068965517241 0  33 10.5450910983863  33 17.8250910983863  C 33 25.1050910983863  25.9068965517241 26  16.8793103448276 26  C 7.85172413793103 26  0.0669371196754568 25.1050910983863  0.0669371196754568 17.8250910983863  Z " fill-rule="nonzero" fill="#5db3ff" stroke="none" transform="matrix(1 0 0 1 342 209 )" />
    <path d="M 0.0669371196754568 17.8250910983863  C 0.0669371196754568 10.5450910983863  7.85172413793103 0  16.8793103448276 0  C 25.9068965517241 0  33 10.5450910983863  33 17.8250910983863  C 33 25.1050910983863  25.9068965517241 26  16.8793103448276 26  C 7.85172413793103 26  0.0669371196754568 25.1050910983863  0.0669371196754568 17.8250910983863  Z " stroke-width="2" stroke="#797979" fill="none" transform="matrix(1 0 0 1 342 209 )" mask="url(#clip91)" />
  </g>
</svg>