<?xml version="1.0" encoding="utf-8"?>
<svg version="1.1" xmlns:xlink="http://www.w3.org/1999/xlink" width="206px" height="151px" xmlns="http://www.w3.org/2000/svg">
  <defs>
    <radialGradient cx="95.6572659616137" cy="14.779060614012" r="153.753623188406" gradientTransform="matrix(0 0.982090677726459 -1 0 110.436326575626 -79.1650485436893 )" gradientUnits="userSpaceOnUse" id="RadialGradient81">
      <stop id="Stop82" stop-color="#d8f8ff" offset="0" />
      <stop id="Stop83" stop-color="#85e2f7" offset="0.2" />
      <stop id="Stop84" stop-color="#007ec3" offset="1" />
    </radialGradient>
    <linearGradient gradientUnits="userSpaceOnUse" x1="103" y1="0" x2="103" y2="151" id="LinearGradient85">
      <stop id="Stop86" stop-color="#8deaff" offset="0" />
      <stop id="Stop87" stop-color="#1173ca" offset="1" />
    </linearGradient>
    <mask fill="white" id="clip88">
      <path d="M 0.463833380242075 94.8547567175018  C 0.463833380242075 50.4868554829339  38.3822122150295 0.548293391430677  103.492822966507 0.548293391430677  C 168.603433717985 0.548293391430677  205.710104137349 50.4868554829339  205.710104137349 94.8547567175018  C 205.710104137349 139.22265795207  150.40956937799 151  103.492822966507 151  C 56.5760765550239 151  0.463833380242075 139.22265795207  0.463833380242075 94.8547567175018  Z " fill-rule="evenodd" />
    </mask>
  </defs>
  <g transform="matrix(1 0 0 1 -409 -41 )">
    <path d="M 0.463833380242075 94.8547567175018  C 0.463833380242075 50.4868554829339  38.3822122150295 0.548293391430677  103.492822966507 0.548293391430677  C 168.603433717985 0.548293391430677  205.710104137349 50.4868554829339  205.710104137349 94.8547567175018  C 205.710104137349 139.22265795207  150.40956937799 151  103.492822966507 151  C 56.5760765550239 151  0.463833380242075 139.22265795207  0.463833380242075 94.8547567175018  Z " fill-rule="nonzero" fill="url(#RadialGradient81)" stroke="none" transform="matrix(1 0 0 1 409 41 )" />
    <path d="M 0.463833380242075 94.8547567175018  C 0.463833380242075 50.4868554829339  38.3822122150295 0.548293391430677  103.492822966507 0.548293391430677  C 168.603433717985 0.548293391430677  205.710104137349 50.4868554829339  205.710104137349 94.8547567175018  C 205.710104137349 139.22265795207  150.40956937799 151  103.492822966507 151  C 56.5760765550239 151  0.463833380242075 139.22265795207  0.463833380242075 94.8547567175018  Z " stroke-width="6" stroke="url(#LinearGradient85)" fill="none" transform="matrix(1 0 0 1 409 41 )" mask="url(#clip88)" />
  </g>
</svg>