<?xml version="1.0" encoding="utf-8"?>
<svg version="1.1" xmlns:xlink="http://www.w3.org/1999/xlink" width="55px" height="34px" xmlns="http://www.w3.org/2000/svg">
  <defs>
    <mask fill="white" id="clip96">
      <path d="M 0 21.7251908396947  C 0 9.37099236641223  10.7868072084325 0.0458015267175599  25.9197551853111 0.0458015267175599  C 41.0527031621897 0.0458015267175599  55 8.45496183206107  55 20.8091603053435  C 55 33.163358778626  45.0173410404624 33.7404580152672  29.8843930635838 33.7404580152672  C 14.7514450867052 33.7404580152672  0 34.0793893129771  0 21.7251908396947  Z " fill-rule="evenodd" />
    </mask>
  </defs>
  <g transform="matrix(1 0 0 1 -723 -222 )">
    <path d="M 0 21.7251908396947  C 0 9.37099236641223  10.7868072084325 0.0458015267175599  25.9197551853111 0.0458015267175599  C 41.0527031621897 0.0458015267175599  55 8.45496183206107  55 20.8091603053435  C 55 33.163358778626  45.0173410404624 33.7404580152672  29.8843930635838 33.7404580152672  C 14.7514450867052 33.7404580152672  0 34.0793893129771  0 21.7251908396947  Z " fill-rule="nonzero" fill="#fdc621" stroke="none" transform="matrix(1 0 0 1 723 222 )" />
    <path d="M 0 21.7251908396947  C 0 9.37099236641223  10.7868072084325 0.0458015267175599  25.9197551853111 0.0458015267175599  C 41.0527031621897 0.0458015267175599  55 8.45496183206107  55 20.8091603053435  C 55 33.163358778626  45.0173410404624 33.7404580152672  29.8843930635838 33.7404580152672  C 14.7514450867052 33.7404580152672  0 34.0793893129771  0 21.7251908396947  Z " stroke-width="2" stroke="#797979" fill="none" transform="matrix(1 0 0 1 723 222 )" mask="url(#clip96)" />
  </g>
</svg>