<?xml version="1.0" encoding="utf-8"?>
<svg version="1.1" xmlns:xlink="http://www.w3.org/1999/xlink" width="71px" height="53px" xmlns="http://www.w3.org/2000/svg">
  <defs>
    <linearGradient gradientUnits="userSpaceOnUse" x1="35.5" y1="0" x2="35.5" y2="53" id="LinearGradient92">
      <stop id="Stop93" stop-color="#f7a336" offset="0" />
      <stop id="Stop94" stop-color="#f46819" offset="1" />
    </linearGradient>
    <mask fill="white" id="clip95">
      <path d="M 0.159864902898968 33.2933914306463  C 0.159864902898968 17.7205519244735  13.2288207148888 0.192447349310105  35.6698564593301 0.192447349310105  C 58.1108922037715 0.192447349310105  70.9000844356882 17.7205519244735  70.9000844356882 33.2933914306463  C 70.9000844356882 48.8662309368192  51.8401913875598 53  35.6698564593301 53  C 19.4995215311005 53  0.159864902898968 48.8662309368192  0.159864902898968 33.2933914306463  Z " fill-rule="evenodd" />
    </mask>
  </defs>
  <g transform="matrix(1 0 0 1 -133 -210 )">
    <path d="M 0.159864902898968 33.2933914306463  C 0.159864902898968 17.7205519244735  13.2288207148888 0.192447349310105  35.6698564593301 0.192447349310105  C 58.1108922037715 0.192447349310105  70.9000844356882 17.7205519244735  70.9000844356882 33.2933914306463  C 70.9000844356882 48.8662309368192  51.8401913875598 53  35.6698564593301 53  C 19.4995215311005 53  0.159864902898968 48.8662309368192  0.159864902898968 33.2933914306463  Z " fill-rule="nonzero" fill="url(#LinearGradient92)" stroke="none" transform="matrix(1 0 0 1 133 210 )" />
    <path d="M 0.159864902898968 33.2933914306463  C 0.159864902898968 17.7205519244735  13.2288207148888 0.192447349310105  35.6698564593301 0.192447349310105  C 58.1108922037715 0.192447349310105  70.9000844356882 17.7205519244735  70.9000844356882 33.2933914306463  C 70.9000844356882 48.8662309368192  51.8401913875598 53  35.6698564593301 53  C 19.4995215311005 53  0.159864902898968 48.8662309368192  0.159864902898968 33.2933914306463  Z " stroke-width="6" stroke="#f7a336" fill="none" transform="matrix(1 0 0 1 133 210 )" mask="url(#clip95)" />
  </g>
</svg>