<?xml version="1.0" encoding="utf-8"?>
<svg version="1.1" xmlns:xlink="http://www.w3.org/1999/xlink" width="170px" height="54px" xmlns="http://www.w3.org/2000/svg">
  <g transform="matrix(1 0 0 1 -167 -364 )">
    <path d="M 252 364  C 299.6 364  337 375.88  337 391  C 337 406.12  299.6 418  252 418  C 204.4 418  167 406.12  167 391  C 167 375.88  204.4 364  252 364  Z " fill-rule="nonzero" fill="#ffffff" stroke="none" />
    <path d="M 252 364.5  C 299.32 364.5  336.5 376.16  336.5 391  C 336.5 405.84  299.32 417.5  252 417.5  C 204.68 417.5  167.5 405.84  167.5 391  C 167.5 376.16  204.68 364.5  252 364.5  Z " stroke-width="1" stroke="#797979" fill="none" />
  </g>
</svg>