<?xml version="1.0" encoding="utf-8"?>
<svg version="1.1" xmlns:xlink="http://www.w3.org/1999/xlink" width="397px" height="297px" xmlns="http://www.w3.org/2000/svg">
  <defs>
    <radialGradient cx="163.490196078431" cy="3.07531777821168E-14" r="277" gradientTransform="matrix(0 1 -1 0 163.490196078431 -163.490196078431 )" gradientUnits="userSpaceOnUse" id="RadialGradient102">
      <stop id="Stop103" stop-color="#e6f9fd" offset="0" />
      <stop id="Stop104" stop-color="#285cbb" offset="0.91" />
      <stop id="Stop105" stop-color="#1d5bd2" offset="1" />
    </radialGradient>
    <linearGradient gradientUnits="userSpaceOnUse" x1="188.5" y1="0" x2="188.5" y2="277" id="LinearGradient106">
      <stop id="Stop107" stop-color="#bde6f6" offset="0" />
      <stop id="Stop108" stop-color="#022653" offset="1" />
    </linearGradient>
    <mask fill="white" id="clip109">
      <path d="M 0.249999999999943 192  C 4.71428571428561 112.75  68.3928571428571 -0.0683229813663502  189.535714285714 1  C 311.25 1.71739130434793  381.5 128.392857142857  376 192  C 378.821428571429 269.464285714286  296.58 277  195.5 277  C 94.42 277  -4.21428571428572 271.25  0.249999999999943 192  Z " fill-rule="evenodd" />
    </mask>
    <filter x="332px" y="138px" width="397px" height="297px" filterUnits="userSpaceOnUse" id="filter110">
      <feOffset dx="0" dy="10" in="SourceAlpha" result="shadowOffsetInner" />
      <feGaussianBlur stdDeviation="5" in="shadowOffsetInner" result="shadowGaussian" />
      <feComposite in2="shadowGaussian" operator="atop" in="SourceAlpha" result="shadowComposite" />
      <feColorMatrix type="matrix" values="0 0 0 0 0.364705882352941  0 0 0 0 0.701960784313725  0 0 0 0 1  0 0 0 1 0  " in="shadowComposite" />
    </filter>
    <g id="widget111">
      <path d="M 0.249999999999943 192  C 4.71428571428561 112.75  68.3928571428571 -0.0683229813663502  189.535714285714 1  C 311.25 1.71739130434793  381.5 128.392857142857  376 192  C 378.821428571429 269.464285714286  296.58 277  195.5 277  C 94.42 277  -4.21428571428572 271.25  0.249999999999943 192  Z " fill-rule="nonzero" fill="url(#RadialGradient102)" stroke="none" transform="matrix(1 0 0 1 342 138 )" />
      <path d="M 0.249999999999943 192  C 4.71428571428561 112.75  68.3928571428571 -0.0683229813663502  189.535714285714 1  C 311.25 1.71739130434793  381.5 128.392857142857  376 192  C 378.821428571429 269.464285714286  296.58 277  195.5 277  C 94.42 277  -4.21428571428572 271.25  0.249999999999943 192  Z " stroke-width="6" stroke="url(#LinearGradient106)" fill="none" transform="matrix(1 0 0 1 342 138 )" mask="url(#clip109)" />
    </g>
  </defs>
  <g transform="matrix(1 0 0 1 -332 -138 )">
    <use xlink:href="#widget111" filter="url(#filter110)" />
    <use xlink:href="#widget111" />
  </g>
</svg>